<?xml version="1.0" encoding="UTF-8"?>
<svg id="Livello_2" data-name="Livello 2" xmlns="http://www.w3.org/2000/svg" viewBox="0 0 571.4 188.59">
  <defs>
    <style>
      .cls-1 {
        fill: #fff;
      }

      .cls-2 {
        fill: #1d71b8;
      }
    </style>
  </defs>
  <g id="Livello_1-2" data-name="Livello 1">
    <g>
      <g>
        <polygon class="cls-1" points="116.07 58.84 75.94 58.84 75.94 26.4 188.59 26.4 188.59 0 0 0 0 188.59 116.07 188.59 116.07 58.84"/>
        <rect class="cls-1" x="148.92" y="58.84" width="39.67" height="129.75"/>
      </g>
      <polygon class="cls-2" points="94.3 188.59 0 188.59 0 94.3 94.3 188.59"/>
      <g>
        <path class="cls-1" d="M240.11,34.91l43.12,96.39h-20.57l-6.39-14.36h-32.34l-6.39,14.36h-20.51l43.07-96.39ZM248.78,100.18l-8.61-19.98-8.73,19.98h17.34Z"/>
        <path class="cls-1" d="M310.42,36.84v75.59h37.97v18.87h-56.95V36.84h18.98Z"/>
        <path class="cls-1" d="M413.55,36.61v18.93h-37.97v19.04h28.48v18.93h-28.48v19.04h37.97v18.87h-56.95V36.61h56.95Z"/>
        <path class="cls-1" d="M478.64,89.05v-52.44h19.04v96.62l-56.95-54.26v52.44h-18.98V34.85l56.89,54.2Z"/>
        <path class="cls-1" d="M571.4,36.84v18.81h-23.2v75.64h-19.04V55.65h-23.26v-18.81h65.51Z"/>
      </g>
      <g>
        <path class="cls-2" d="M365.13,167.99c0,1.31,1.57,2.6,3.27,2.82h0s.46,0,.46,0c1.82,0,3.77-1.35,3.77-2.72,0-2.36-3.85-2.72-7-3.65-4.94-1.46-9.09-5.04-9.09-10.04,0-6.07,5.23-10.98,12.37-10.98,6.51,0,11.45,4.34,12.23,9.98l.1.69-9.14,1.84c0-2.19-.89-3.77-3.14-3.77-1.72,0-3.18,1.23-3.18,2.72,0,2.35,3.64,3.11,6.64,3.87,5.08,1.28,9.39,4.73,9.39,9.84,0,6.11-5.79,10.99-12.88,10.99-6.51,0-11.91-4.28-12.78-9.97l-.11-.7,9.09-1.85v.93Z"/>
        <path class="cls-2" d="M381.37,143.67h9.84l6.8,11.45,6.8-11.45h9.87l-11.78,20.41v15.17h-9.76v-15.17l-11.76-20.41Z"/>
        <path class="cls-2" d="M423.1,167.99c0,1.31,1.57,2.6,3.27,2.82h0s.46,0,.46,0c1.82,0,3.77-1.35,3.77-2.72,0-2.36-3.85-2.72-7-3.65-4.94-1.46-9.09-5.04-9.09-10.04,0-6.07,5.23-10.98,12.37-10.98,6.51,0,11.45,4.34,12.23,9.98l.1.69-9.14,1.84c0-2.19-.9-3.77-3.14-3.77-1.72,0-3.18,1.23-3.18,2.72,0,2.35,3.64,3.11,6.64,3.87,5.08,1.28,9.39,4.73,9.39,9.84,0,6.11-5.79,10.99-12.88,10.99-6.51,0-11.91-4.28-12.78-9.97l-.11-.7,9.09-1.85v.93Z"/>
        <path class="cls-2" d="M441.55,143.67h27.77v8.63h-9.07l.33,26.95h-9.82l-.11-26.95h-9.1v-8.63Z"/>
        <path class="cls-2" d="M472.41,143.58h24.55v8.67h-15.43v4.86h11.86v8.67h-11.86v4.86h15.43v8.65h-24.55v-35.72Z"/>
        <path class="cls-2" d="M501.84,143.58l17.2,22.62,17.18-22.62h1.79v35.67h-8.7v-13.14l-10.26,13.11-10.29-13.11v13.14h-8.7v-35.67h1.79Z"/>
        <path class="cls-2" d="M549.96,167.99c0,1.31,1.57,2.6,3.27,2.82h0s.46,0,.46,0c1.82,0,3.77-1.35,3.77-2.72,0-2.36-3.85-2.72-7-3.65-4.94-1.46-9.09-5.04-9.09-10.04,0-6.07,5.23-10.98,12.37-10.98,6.51,0,11.45,4.34,12.23,9.98l.1.69-9.14,1.84c0-2.19-.9-3.77-3.14-3.77-1.72,0-3.18,1.23-3.18,2.72,0,2.35,3.64,3.11,6.64,3.87,5.08,1.28,9.39,4.73,9.39,9.84,0,6.11-5.79,10.99-12.88,10.99-6.51,0-11.91-4.28-12.78-9.97l-.11-.7,9.09-1.85v.93Z"/>
      </g>
    </g>
  </g>
</svg>